<svg width="16" height="16" viewBox="0 0 16 16" fill="none" xmlns="http://www.w3.org/2000/svg">
<g clip-path="url(#clip0_278_2795)">
<path d="M9.20003 15.8942V10.353H11.0471L11.4 8.04714H9.20003V6.56479C9.20003 5.92949 9.50591 5.31773 10.4941 5.31773H11.4941V3.36478C10.8902 3.26282 10.2981 3.21184 9.71768 3.21184C7.90591 3.21184 6.71768 4.31773 6.71768 6.30596V8.04714H4.70591V10.353H6.71768V15.8942C2.92944 15.306 0.0235596 12.0118 0.0235596 8.04714C0.0235596 3.67067 3.5765 0.105957 7.96473 0.105957C12.3412 0.105957 15.9059 3.67067 15.9059 8.04714C15.9059 12.0118 13 15.306 9.20003 15.8942Z" fill="#4676ED"/>
<path d="M9.20005 10.3528V15.894C8.80005 15.9567 8.38828 15.9881 7.96476 15.9881C7.54123 15.9881 7.12554 15.9567 6.7177 15.894V10.3528H4.70593V8.04696H6.7177V6.30579C6.7177 4.31755 7.90593 3.21167 9.7177 3.21167C10.2981 3.21167 10.8902 3.26265 11.4942 3.36461V5.31755H10.4942C9.50593 5.31755 9.20005 5.92932 9.20005 6.56461V8.04696H11.4001L11.0471 10.3528H9.20005Z" fill="white"/>
</g>
<defs>
<clipPath id="clip0_278_2795">
<rect width="16" height="16" fill="white"/>
</clipPath>
</defs>
</svg>
