<svg width="40" height="23" viewBox="0 0 40 23" fill="none" xmlns="http://www.w3.org/2000/svg">
<g clip-path="url(#clip0_278_2739)">
<path d="M35.7143 0.657959H4.28571C1.91878 0.657959 0 2.53022 0 4.83978V18.7792C0 21.0887 1.91878 22.961 4.28571 22.961H35.7143C38.0812 22.961 40 21.0887 40 18.7792V4.83978C40 2.53022 38.0812 0.657959 35.7143 0.657959Z" fill="#111827"/>
<mask id="mask0_278_2739" style="mask-type:luminance" maskUnits="userSpaceOnUse" x="0" y="0" width="40" height="23">
<path d="M40 0.657959H0V22.961H40V0.657959Z" fill="white"/>
</mask>
<g mask="url(#mask0_278_2739)">
<mask id="mask1_278_2739" style="mask-type:luminance" maskUnits="userSpaceOnUse" x="3" y="-5" width="34" height="34">
<path d="M37 -4.56104H3V28.6147H37V-4.56104Z" fill="white"/>
</mask>
<g mask="url(#mask1_278_2739)">
<path d="M9.09396 8.99918C8.98268 8.78131 8.80668 8.6017 8.5881 8.46677C8.36018 8.33051 8.09103 8.2351 7.78346 8.1785C7.47053 8.12323 7.10898 8.09821 6.69013 8.09424L4.75639 8.09556C4.55539 8.09821 4.35845 8.25092 4.31123 8.44042L3.01015 13.97C2.96294 14.157 3.08907 14.3136 3.29006 14.3136H4.21613C4.41713 14.3136 4.6161 14.1616 4.66061 13.97L4.9783 12.6275C5.02078 12.4405 5.21908 12.2846 5.4221 12.2846H5.68718C6.81963 12.2832 7.69646 12.0576 8.32646 11.6054C8.95975 11.1526 9.27203 10.5543 9.27203 9.81331C9.27139 9.48881 9.21675 9.21636 9.09396 8.99918ZM7.09685 10.8057C6.81693 11.0058 6.42775 11.1058 5.92594 11.1058H5.69932C5.49765 11.1058 5.37422 10.9506 5.41805 10.761L5.69662 9.58687C5.73574 9.39869 5.93875 9.24271 6.13773 9.24403L6.44125 9.24201C6.79535 9.24201 7.06582 9.30195 7.2466 9.41778C7.42532 9.5323 7.51503 9.71455 7.51368 9.95612C7.5191 10.3234 7.37539 10.6057 7.09685 10.8057Z" fill="white"/>
<path d="M35.4932 8.52729L35.4352 8.54444L35.3576 8.55496L35.2625 8.54047L35.214 8.4944L35.1917 8.42198L35.1903 8.31339V7.91131H35.4999V7.7869H35.1903V7.53613H35.0373V7.7869H34.9333V7.91131H35.0373V8.37926L35.1087 8.61086L35.3192 8.6846L35.4076 8.67735L35.5013 8.65958V8.52729H35.4932Z" fill="white"/>
<path d="M36.9292 7.85083L36.708 7.76196L36.5447 7.79423L36.3788 7.90345L36.2824 7.79883L36.1259 7.76266L35.9755 7.79486L35.8332 7.88442V7.78698H35.6827V8.66558H35.8325V8.00946L35.9586 7.93307L36.0841 7.90282L36.1866 7.92059L36.2372 7.97126L36.2595 8.05553L36.2669 8.16411V8.66628H36.4172V8.10418L36.4145 8.05748L36.4119 8.01468L36.54 7.93509L36.6668 7.90415L36.766 7.92192L36.82 7.97259L36.8388 8.05748L36.849 8.16474V8.66691H37V8.0963L36.9292 7.85083Z" fill="white"/>
<path d="M13.5597 9.78949C13.2103 9.59733 12.6586 9.50122 11.9046 9.50122C11.5316 9.50122 11.1599 9.52952 10.7842 9.58611C10.507 9.62758 10.4801 9.63553 10.3094 9.6717C9.95734 9.74669 9.90199 10.0896 9.90199 10.0896L9.7887 10.5444C9.72463 10.8346 9.89591 10.8234 9.96741 10.799C10.1212 10.7543 10.2068 10.7082 10.5212 10.6398C10.8213 10.5733 11.1376 10.5233 11.3886 10.5266C11.7588 10.5266 12.0421 10.5648 12.231 10.6424C12.4171 10.7214 12.5102 10.857 12.5102 11.0531L12.4941 11.1808L12.3605 11.2611C11.8351 11.2933 11.4553 11.3407 10.9946 11.4059C10.5441 11.4671 10.1488 11.5744 9.82041 11.7211C9.46763 11.8725 9.20591 12.0758 9.02313 12.3345C8.84641 12.5944 8.75806 12.9097 8.75806 13.2796C8.75806 13.6277 8.8862 13.9153 9.13513 14.1377C9.38534 14.3562 9.71584 14.4629 10.1111 14.4629C10.3613 14.4616 10.5549 14.4425 10.6925 14.4103L11.1411 14.2595L11.5208 14.0542L11.8701 13.8291L11.8748 13.8357L11.8398 13.9805L11.8378 13.9864V13.9878C11.8 14.1641 11.9093 14.3089 12.0853 14.326L12.0887 14.33H12.1048H12.8151H12.9486L12.9608 14.3247C13.1456 14.3036 13.3189 14.1589 13.3594 13.9864L14.0346 11.1347L14.0696 10.9024L14.0858 10.6845C14.0885 10.2804 13.9098 9.98101 13.5597 9.78949ZM12.0664 12.9959L11.9221 13.1815L11.5578 13.3652C11.3866 13.4329 11.224 13.4671 11.0736 13.4671C10.8456 13.4671 10.6668 13.4349 10.5461 13.3691L10.3674 13.0301C10.3674 12.8465 10.4106 12.7011 10.503 12.5892L10.8955 12.3285C11.0635 12.2733 11.2685 12.2266 11.5059 12.1943C11.7177 12.1687 12.1359 12.1219 12.1906 12.1206L12.2546 12.2305C12.2418 12.293 12.1231 12.7774 12.0664 12.9959Z" fill="white"/>
<path d="M30.38 9.79353C30.0286 9.60138 29.4775 9.50464 28.7255 9.50464C28.3525 9.50464 27.9802 9.53294 27.6059 9.59155C27.3279 9.631 27.3003 9.63957 27.129 9.67512C26.7776 9.74948 26.7229 10.0936 26.7229 10.0936L26.6097 10.5478C26.5462 10.838 26.7135 10.8248 26.7917 10.8025C26.9462 10.7577 27.0292 10.7136 27.3408 10.6426C27.6396 10.5767 27.9586 10.5281 28.2102 10.5293C28.5792 10.5293 28.8624 10.5682 29.0506 10.6459C29.2381 10.7248 29.3298 10.8617 29.3298 11.0559L29.3157 11.1829L29.1834 11.2651C28.6527 11.2961 28.2722 11.3435 27.8163 11.4086C27.3671 11.4698 26.9705 11.5765 26.6413 11.7239C26.2899 11.8759 26.0249 12.0792 25.8441 12.3386C25.6654 12.5985 25.5784 12.9131 25.5784 13.2797C25.5784 13.6305 25.7052 13.9181 25.9574 14.1392C26.209 14.3571 26.5361 14.4663 26.9314 14.4663C27.1802 14.4636 27.3738 14.4479 27.5121 14.413L27.9593 14.2642L28.3424 14.0589L28.6891 13.8312L28.6952 13.8385L28.6634 13.9846L28.6601 13.9872L28.6614 13.9898C28.6196 14.1662 28.7295 14.3123 28.9076 14.3281L28.9089 14.3314H28.9252C29.0418 14.3314 29.4452 14.3314 29.6374 14.3314H29.7682L29.7824 14.3268C29.9652 14.3051 30.1379 14.1603 30.1763 13.9859L30.8535 11.1381L30.8892 10.9045L30.9088 10.686C30.9094 10.2832 30.7327 9.98506 30.38 9.79353ZM28.8901 13L28.7397 13.1876L28.3788 13.3698C28.2075 13.437 28.0442 13.4719 27.8965 13.4719C27.6612 13.4719 27.4872 13.439 27.3698 13.3732L27.189 13.0355C27.189 12.8512 27.2329 12.7071 27.3212 12.5933C27.4109 12.486 27.5479 12.3978 27.7178 12.3333C27.8837 12.278 28.0888 12.2333 28.3275 12.1997C28.538 12.174 28.9548 12.126 29.0088 12.1253L29.0742 12.2352C29.0647 12.2977 28.9454 12.7802 28.8901 13Z" fill="white"/>
<path d="M25.9115 9.01966C25.7955 8.80046 25.6214 8.62343 25.4016 8.48522C25.1763 8.34834 24.9092 8.25222 24.5969 8.19695C24.29 8.14364 23.9238 8.11471 23.5076 8.11401L21.5712 8.11534C21.3695 8.11868 21.1759 8.27132 21.1294 8.45887L19.827 13.9911C19.7798 14.1787 19.9093 14.3341 20.1062 14.3341L21.0336 14.3327C21.2306 14.3341 21.4323 14.18 21.4788 13.9905L21.7924 12.6472C21.8383 12.4603 22.0373 12.3031 22.2376 12.3043H22.5026C23.6364 12.3043 24.5153 12.0766 25.148 11.6258C25.7732 11.1697 26.0896 10.5729 26.0896 9.83114C26.0862 9.50795 26.0289 9.23481 25.9115 9.01966ZM23.9144 10.8288C23.6351 11.025 23.2453 11.125 22.7461 11.125H22.5155C22.3165 11.1269 22.1876 10.969 22.2322 10.7808L22.5128 9.60866C22.5539 9.42111 22.7549 9.2638 22.9552 9.26576L23.2554 9.2638C23.6115 9.26576 23.8786 9.32305 24.0607 9.43888C24.2421 9.55472 24.3278 9.73635 24.3299 9.97722C24.3319 10.3445 24.1922 10.6274 23.9144 10.8288Z" fill="white"/>
<path d="M33.8522 8.50293C33.8947 8.31405 33.7732 8.16072 33.5743 8.16336H32.7447C32.5747 8.16336 32.4216 8.28645 32.3467 8.43783L32.3009 8.5076L32.259 8.68658L31.0996 13.8292L31.0618 13.9872L31.0632 13.9911C31.0247 14.1602 31.1313 14.2879 31.2959 14.3123L31.31 14.3313H32.1714C32.3399 14.3313 32.4984 14.2063 32.5707 14.0523L32.6152 13.9865L33.8549 8.50362L33.8522 8.50293Z" fill="white"/>
<path d="M19.8527 9.57063C19.6334 9.57321 18.7424 9.57063 18.7424 9.57063C18.5428 9.57063 18.2865 9.72787 18.1597 9.91549C18.1597 9.91549 16.8337 12.136 16.7048 12.3591L16.551 12.3571L16.1382 9.93062C16.0924 9.73972 15.888 9.57656 15.6337 9.57656L14.8042 9.57781C14.6045 9.57781 14.4817 9.73317 14.5269 9.92267C14.5269 9.92267 15.1569 13.4207 15.283 14.244C15.3417 14.6981 15.2756 14.7791 15.2756 14.7791L14.4554 16.173C14.334 16.3625 14.3994 16.5172 14.5984 16.5172L15.5575 16.5159C15.7572 16.5159 16.0195 16.3625 16.1382 16.1723L19.8277 10.0833C19.8277 10.0833 20.1824 9.56338 19.8527 9.57063Z" fill="white"/>
</g>
</g>
</g>
<defs>
<clipPath id="clip0_278_2739">
<rect width="40" height="23" fill="white"/>
</clipPath>
</defs>
</svg>
