<svg width="16" height="16" viewBox="0 0 16 16" fill="none" xmlns="http://www.w3.org/2000/svg">
<g clip-path="url(#clip0_278_2805)">
<path d="M7.97646 15.9058C3.59999 15.9058 0.0352783 12.3411 0.0352783 7.96461C0.0352783 3.57638 3.59999 0.0234375 7.97646 0.0234375C12.3647 0.0234375 15.9176 3.57638 15.9176 7.96461C15.9176 12.3411 12.3647 15.9058 7.97646 15.9058Z" fill="url(#paint0_linear_278_2805)"/>
<path d="M5.44704 7.87069L10.6941 5.41187L8.59998 9.43539C7.35292 10.7373 6.68625 11.3883 6.59998 11.3883C6.51371 11.3883 6.43135 11.3099 6.35292 11.153L5.41174 8.54128L5.44704 7.87069Z" fill="#C8DAEA"/>
<path d="M8.15288 10.0823C7.77641 10.3881 7.39209 10.7372 6.99994 11.1293C6.60779 11.5215 6.43524 11.5215 6.48229 11.1293L6.65876 9.21167L8.15288 10.0823Z" fill="#A9C6D8"/>
<path d="M5.43529 8.63525L3.49412 7.99996C3.33726 7.9372 3.28627 7.83525 3.34118 7.69408C3.35294 7.64702 3.38823 7.61171 3.47059 7.55289C3.76079 7.34897 6.41176 6.34505 11.4235 4.54113C11.5647 4.49407 11.6784 4.48623 11.7647 4.5176C11.8235 4.54113 11.8588 4.56466 11.8824 4.65878C11.8941 4.69407 11.9059 4.76466 11.9059 4.83525C11.9059 4.88231 11.8941 4.92937 11.8941 4.99996C11.8627 5.49408 11.3882 7.57643 10.4706 11.247C10.4235 11.4666 10.302 11.5803 10.1059 11.5882C9.98823 11.5882 9.85882 11.5647 9.70588 11.4352C9.12941 10.9411 7.14118 9.59996 6.69412 9.30584C6.67059 9.28231 6.67059 9.27055 6.65882 9.24702C6.65882 9.22349 6.67059 9.19996 6.69412 9.17643C9.00785 7.12152 10.1922 5.98426 10.2471 5.76466C10.2588 5.74113 10.2353 5.72937 10.2 5.74113C9.9647 5.82349 5.97647 8.3529 5.52941 8.62349C5.51373 8.63918 5.48235 8.6431 5.43529 8.63525Z" fill="white"/>
</g>
<defs>
<linearGradient id="paint0_linear_278_2805" x1="-0.200015" y1="15.9058" x2="-0.200015" y2="0.0234375" gradientUnits="userSpaceOnUse">
<stop stop-color="#1D93D2"/>
<stop offset="1" stop-color="#38B0E3"/>
</linearGradient>
<clipPath id="clip0_278_2805">
<rect width="16" height="16" fill="white"/>
</clipPath>
</defs>
</svg>
