<svg width="16" height="16" viewBox="0 0 16 16" fill="none" xmlns="http://www.w3.org/2000/svg">
<g clip-path="url(#clip0_278_2812)">
<path d="M15.9765 8.04714C15.9765 12.4354 12.4235 15.9883 8.03529 15.9883C3.65882 15.9883 0.0941162 12.4354 0.0941162 8.04714C0.0941162 3.67067 3.65882 0.105957 8.03529 0.105957C12.4235 0.105957 15.9765 3.67067 15.9765 8.04714Z" fill="#5A99EC"/>
<path d="M3.19995 11.6823C3.36466 11.698 3.53328 11.7058 3.70583 11.7058C4.69407 11.7058 5.59995 11.3764 6.32936 10.7999C5.39995 10.7882 4.62348 10.1764 4.35289 9.3411C4.47839 9.36463 4.61172 9.37639 4.75289 9.37639C4.94113 9.37639 5.12543 9.35286 5.30583 9.3058C4.34113 9.1058 3.61172 8.25874 3.61172 7.23521C3.61172 7.22737 3.61172 7.21952 3.61172 7.21168C3.89407 7.36463 4.22348 7.45874 4.56466 7.47051C3.99995 7.09404 3.63525 6.44698 3.63525 5.71757C3.63525 5.32933 3.74113 4.97639 3.9176 4.65874C4.95289 5.92933 6.50583 6.77639 8.25877 6.85874C8.2274 6.70972 8.21172 6.54894 8.21172 6.37639C8.21172 5.21168 9.15289 4.27051 10.3176 4.27051C10.9294 4.27051 11.4705 4.52933 11.8588 4.9411C12.3411 4.84698 12.7882 4.67051 13.2 4.42345C13.0352 4.91757 12.7058 5.32933 12.2705 5.58816C12.6941 5.5411 13.1058 5.43521 13.4823 5.25874C13.2 5.68227 12.8352 6.05874 12.4235 6.35286C12.4314 6.44698 12.4352 6.53717 12.4352 6.62345C12.4352 9.41168 10.3176 12.6234 6.43525 12.6234C5.24701 12.6234 4.12936 12.2823 3.19995 11.6823Z" fill="white"/>
</g>
<defs>
<clipPath id="clip0_278_2812">
<rect width="16" height="16" fill="white"/>
</clipPath>
</defs>
</svg>
