<svg width="40" height="23" viewBox="0 0 40 23" fill="none" xmlns="http://www.w3.org/2000/svg">
<g clip-path="url(#clip0_278_2760)">
<path d="M35.7143 0.657959H4.28571C1.91878 0.657959 0 2.53022 0 4.83978V18.7792C0 21.0887 1.91878 22.961 4.28571 22.961H35.7143C38.0812 22.961 40 21.0887 40 18.7792V4.83978C40 2.53022 38.0812 0.657959 35.7143 0.657959Z" fill="#111827"/>
<mask id="mask0_278_2760" style="mask-type:luminance" maskUnits="userSpaceOnUse" x="0" y="0" width="40" height="23">
<path d="M40 0.657959H0V22.961H40V0.657959Z" fill="white"/>
</mask>
<g mask="url(#mask0_278_2760)">
<mask id="mask1_278_2760" style="mask-type:luminance" maskUnits="userSpaceOnUse" x="4" y="-4" width="32" height="32">
<path d="M36 -3.80249H4V27.4218H36V-3.80249Z" fill="white"/>
</mask>
<g mask="url(#mask1_278_2760)">
<path d="M13.7629 5.85474V6.36019L13.7636 6.36082H14.2861V5.85474H13.7629Z" fill="white"/>
<path d="M14.8125 5.34106H14.2861V5.8547H14.8125V5.34106Z" fill="white"/>
<path d="M13.2964 7.37417V6.87123H13.7634V6.36074L12.8081 6.36011V6.87123H12.3301V7.85445H12.8081L12.8074 7.37417H13.2964L13.2958 7.85508H12.8074V8.3316H12.3294V8.81627H11.8327V8.33222H12.3288V7.85508H11.8327V7.39619H11.3399V7.85508H11.8327L11.8321 8.3316H11.0115V8.68155H10.5709V9.10956H11.0637V9.5867H10.5709V9.10956H10.0477V9.85929H9.55423V10.3389H9.22652V10.8185H8.86787C8.4608 11.4065 7.44537 13.2394 7.13898 13.9847C6.03329 12.4822 5.17466 11.8868 4.4986 11.6727C4.13606 11.5657 3.69223 11.9535 4.30056 12.5628C5.68945 14.0565 6.13005 15.2933 6.55195 16.2791C6.77644 16.799 7.78023 16.8802 7.98209 16.3502C8.40787 15.2304 9.03166 13.9728 9.76323 12.9398V12.4041H10.1593L10.1599 11.9207H10.5709V11.3631H11.0676V10.823H10.5709V10.3414H11.0676V10.823H11.5527V10.3389H11.9449V9.75286H12.3817V9.35064H12.8074V8.3316L13.2964 8.33222L13.2958 7.85508H13.8454V7.37417H13.2964Z" fill="white"/>
<path d="M24.6451 10.1082C24.3761 10.1082 24.1632 10.3159 24.1632 10.5771C24.1619 10.8459 24.3941 11.036 24.6593 11.036C24.9102 11.036 25.1154 10.8283 25.1154 10.5771C25.1154 10.3159 24.9102 10.1082 24.6451 10.1082Z" fill="white"/>
<path d="M18.1469 10.1082C17.8818 10.1082 17.6689 10.3159 17.6689 10.5771C17.6689 10.8459 17.9005 11.036 18.165 11.036C18.4159 11.036 18.6211 10.8283 18.6211 10.5771C18.6211 10.3159 18.4159 10.1082 18.1469 10.1082Z" fill="white"/>
<path d="M14.8125 6.36328H14.2861V6.87692H14.8125V6.36328Z" fill="white"/>
<path d="M34.3118 14.9045V13.3177C34.3118 12.4924 33.8344 12.1211 32.9848 12.1211C32.3578 12.1211 31.8759 12.371 31.5676 12.9092H31.5488L31.4327 12.1211C30.9947 12.1985 30.6663 12.3376 30.209 12.3892V12.5623C30.4916 12.5623 30.7321 12.5265 30.8025 12.8386C30.847 13.0388 30.847 13.6463 30.847 13.8899V14.9543C30.847 15.527 30.8902 15.7342 30.2232 15.7795V15.9526C30.5689 15.9431 30.9089 15.9255 31.2579 15.9173C31.5753 15.9255 31.9036 15.9431 32.2249 15.9526V15.7801C31.5224 15.7373 31.6004 15.4767 31.6004 14.9033V13.5587C31.6004 12.9255 32.0443 12.3967 32.7403 12.3967C33.5861 12.3967 33.5596 13.2472 33.5596 13.8452V14.9549C33.5596 15.5277 33.6028 15.7348 32.9345 15.7801V15.9532C33.2822 15.9438 33.619 15.9261 33.9666 15.918C34.2879 15.9261 34.6169 15.9438 34.9369 15.9532V15.7801C34.2402 15.7361 34.3118 15.4748 34.3118 14.9045Z" fill="white"/>
<path d="M29.5291 12.1487C29.2039 12.1487 28.9053 12.3312 28.6659 12.5131C28.3621 12.245 27.9454 12.1235 27.5344 12.1235C26.6636 12.1235 25.8643 12.6176 25.8643 13.5373C25.8643 14.0912 26.2984 14.5684 26.8139 14.7333V14.7503C26.4332 14.8018 26.0339 15.0801 26.0339 15.4968C26.0339 16.2761 26.8403 16.2603 27.4299 16.2761C28.0415 16.3119 29.0214 16.2685 29.0214 17.1183C29.0214 17.8201 28.3447 18.0807 27.7209 18.0807C27.0971 18.0807 26.3094 17.9309 26.3094 17.1775C26.3094 16.908 26.4772 16.6134 26.7687 16.5618C26.6642 16.4668 26.5474 16.4045 26.3991 16.4045C26.0133 16.4045 25.7411 16.7702 25.7411 17.1258C25.7411 18.0291 26.8687 18.279 27.6047 18.279C28.5756 18.279 29.6213 17.9234 29.6213 16.8231C29.6213 15.6598 28.6653 15.6246 27.757 15.5566L27.1597 15.5295C26.9648 15.5125 26.4752 15.5471 26.4752 15.2431C26.4752 14.8894 27.1597 14.8894 27.4293 14.8793C28.344 14.8365 29.1356 14.5413 29.1356 13.5184C29.1356 13.2043 29.0272 12.9003 28.8149 12.6668C28.9111 12.5899 29.0537 12.5031 29.1807 12.5031C29.4529 12.5031 29.4833 12.8046 29.7555 12.8046C29.929 12.8046 30.0509 12.6755 30.0509 12.5182C30.0509 12.2513 29.7555 12.1462 29.5291 12.1487ZM27.4725 14.6804C26.83 14.6804 26.619 14.0377 26.619 13.5165C26.619 12.9695 26.8042 12.3212 27.4887 12.3212C28.1647 12.3212 28.3769 12.962 28.3769 13.5165C28.3769 14.0786 28.1576 14.6804 27.4725 14.6804Z" fill="white"/>
<path d="M35.4683 12.7788C35.5703 12.7625 35.656 12.7052 35.6554 12.5768C35.6554 12.449 35.5813 12.3804 35.4174 12.3804H35.1335V13.0961H35.2278V12.7788H35.3761L35.5806 13.0961H35.689L35.4683 12.7788ZM35.3451 12.7059H35.2258V12.4566H35.3897C35.48 12.4566 35.5619 12.4798 35.5619 12.5793C35.5619 12.7014 35.4535 12.704 35.3451 12.7059Z" fill="white"/>
<path d="M35.3652 12.1216C35.0085 12.1216 34.7305 12.3916 34.7305 12.7404C34.7305 13.0859 35.0085 13.3591 35.3652 13.3591C35.722 13.3591 36 13.0878 36 12.7404C36 12.3916 35.722 12.1216 35.3652 12.1216ZM35.3652 13.2722C35.0575 13.2722 34.8272 13.0368 34.8272 12.7404C34.8272 12.4439 35.0588 12.2091 35.3652 12.2091C35.6697 12.2091 35.898 12.4432 35.898 12.7404C35.898 13.0349 35.671 13.271 35.3652 13.2722Z" fill="white"/>
<path d="M16.3549 12.1204C15.7426 12.1204 15.2975 12.4678 15.0666 12.9972H15.0479C15.0595 12.6837 15.0221 12.3715 14.9434 12.1204C14.5518 12.2066 14.1596 12.3621 13.7416 12.3891V12.561C14.0247 12.561 14.2492 12.5263 14.3273 12.8386C14.3911 13.0375 14.3796 13.6549 14.3796 13.8885V14.9529C14.3796 15.5258 14.4279 15.7341 13.7596 15.7781V15.9525C14.1073 15.9418 14.4434 15.9254 14.7905 15.9172C15.1266 15.9254 15.4743 15.943 15.8136 15.9525V15.7781C15.0672 15.7435 15.1375 15.5358 15.1375 14.9025V14.0446C15.1375 13.6449 15.1375 13.2207 15.3426 12.8644C15.4736 12.6466 15.7684 12.4313 16.0336 12.4313C16.3806 12.4313 16.3026 12.8826 16.6754 12.8826C16.8438 12.8826 16.9851 12.7354 16.9851 12.5691C16.9851 12.2513 16.6303 12.1204 16.3549 12.1204Z" fill="white"/>
<path d="M13.3707 13.6115C13.4604 13.6115 13.5914 13.6474 13.5914 13.5341C13.5914 12.5969 12.7663 12.1204 11.8961 12.1204C10.7381 12.1204 9.89429 13.0986 9.89429 14.1831C9.89429 15.2935 10.8013 16.0482 11.9031 16.0482C12.5714 16.0482 13.0682 15.8146 13.4862 15.3117L13.2991 15.1298C13.034 15.4754 12.6308 15.7719 12.1792 15.7719C11.2271 15.7719 10.7826 14.8535 10.7826 14.0282L10.8206 13.6115H13.3707ZM11.9038 12.3212C12.4637 12.3212 12.7663 12.6667 12.7663 13.2043C12.7663 13.4215 12.4747 13.3774 12.3328 13.378H10.8658C10.9704 12.814 11.2394 12.3212 11.9038 12.3212Z" fill="white"/>
<path d="M25.1212 14.9045V12.1211L23.7174 12.3892V12.5623C23.8955 12.5522 24.2683 12.5352 24.3283 12.753C24.3664 12.8846 24.3664 13.5518 24.3664 13.7155V14.9549C24.3587 15.5277 24.4109 15.7354 23.7542 15.7807V15.9545C24.1019 15.9444 24.4458 15.9274 24.7922 15.9186C25.1134 15.9274 25.4424 15.9444 25.7456 15.9545V15.7807C25.0431 15.7386 25.1406 15.4767 25.1212 14.9045Z" fill="white"/>
<path d="M18.6282 14.9045V12.1211L17.2245 12.3892V12.5623C17.4031 12.5522 17.7766 12.5352 17.8366 12.753C17.8741 12.8846 17.8741 13.5518 17.8741 13.7155V14.9549C17.8625 15.5277 17.9186 15.7354 17.2618 15.7807V15.9545C17.6051 15.9444 17.9528 15.9274 18.2998 15.9186C18.6211 15.9274 18.9494 15.9444 19.252 15.9545V15.7807C18.5501 15.7361 18.6469 15.4748 18.6282 14.9045Z" fill="white"/>
<path d="M21.6944 12.4075C21.1448 12.1809 20.5145 11.9468 20.5145 11.2607C20.5145 10.6979 20.9848 10.3423 21.5519 10.3423C22.4149 10.3423 22.8317 10.9925 23.0349 11.7126H23.2388L23.1988 10.2126H23.0988L22.893 10.55C22.4936 10.2731 22.0421 10.1082 21.5525 10.1082C20.5855 10.1082 19.7939 10.6803 19.7939 11.6686C19.7939 12.6575 20.6532 13.0736 21.4628 13.3776C22.1118 13.6281 22.8149 13.9416 22.8149 14.7296C22.8149 15.4315 22.2363 15.8142 21.5447 15.8142C20.5216 15.8142 20.0397 15.0764 19.8649 14.2015H19.6598V15.8929H19.7565L19.9694 15.5284C20.4513 15.8752 20.9229 16.049 21.5266 16.049C22.564 16.049 23.651 15.5026 23.651 14.3658C23.6504 13.2315 22.6201 12.7789 21.6944 12.4075Z" fill="white"/>
</g>
</g>
</g>
<defs>
<clipPath id="clip0_278_2760">
<rect width="40" height="23" fill="white"/>
</clipPath>
</defs>
</svg>
