<svg width="40" height="23" viewBox="0 0 40 23" fill="none" xmlns="http://www.w3.org/2000/svg">
<g clip-path="url(#clip0_278_2724)">
<path d="M35.7143 0.657959H4.28571C1.91878 0.657959 0 2.53022 0 4.83978V18.7792C0 21.0887 1.91878 22.961 4.28571 22.961H35.7143C38.0812 22.961 40 21.0887 40 18.7792V4.83978C40 2.53022 38.0812 0.657959 35.7143 0.657959Z" fill="#111827"/>
<mask id="mask0_278_2724" style="mask-type:luminance" maskUnits="userSpaceOnUse" x="0" y="0" width="40" height="23">
<path d="M40 0.657959H0V22.961H40V0.657959Z" fill="white"/>
</mask>
<g mask="url(#mask0_278_2724)">
<mask id="mask1_278_2724" style="mask-type:luminance" maskUnits="userSpaceOnUse" x="4" y="-4" width="32" height="32">
<path d="M36 -3.80249H4V27.4218H36V-3.80249Z" fill="white"/>
</mask>
<g mask="url(#mask1_278_2724)">
<path d="M16.8131 7.16309L15.1868 16.4754H17.7877L19.4153 7.16309H16.8131Z" fill="white"/>
<path d="M13.0058 7.17358L10.4584 13.5243L10.1867 12.5654C9.68438 11.41 8.25809 9.7507 6.58362 8.70496L8.91302 16.4709L11.6652 16.4663L15.7614 7.17163L13.0058 7.17358Z" fill="white"/>
<path d="M9.1993 7.84006C9.04816 7.27279 8.60994 7.10378 8.06609 7.0835H4.03344L4 7.26889C7.13819 8.01172 9.21473 9.80161 10.0764 11.9538L9.1993 7.84006Z" fill="white"/>
<path d="M24.6869 8.94842C25.5378 8.93531 26.1546 9.1168 26.6336 9.30478L26.8684 9.41253L27.2203 7.39417C26.7051 7.2055 25.8977 7.00317 24.8902 7.00317C22.32 7.00317 20.5084 8.26629 20.4944 10.0764C20.4776 11.4139 21.7848 12.1607 22.7722 12.6065C23.7857 13.0634 24.1256 13.3539 24.1209 13.7619C24.1129 14.3853 23.3128 14.6712 22.5655 14.6712C21.5239 14.6712 20.9706 14.5308 20.1164 14.1836L19.7812 14.0348L19.4153 16.119C20.0241 16.3794 21.1473 16.6034 22.3133 16.6151C25.0474 16.6151 26.8242 15.367 26.843 13.4329C26.8544 12.3747 26.1606 11.5673 24.6574 10.9047C23.7476 10.4726 23.191 10.1854 23.1964 9.74937C23.1964 9.36228 23.6686 8.94842 24.6869 8.94842Z" fill="white"/>
<path d="M33.8954 7.17358H31.8858C31.2616 7.17358 30.7974 7.33939 30.5231 7.94645L26.661 16.4807H29.3925C29.3925 16.4807 29.838 15.3331 29.939 15.0818C30.2381 15.0818 32.8919 15.0857 33.2699 15.0857C33.3475 15.4108 33.587 16.4807 33.587 16.4807H36L33.8954 7.17358ZM30.6877 13.1757C30.9017 12.6412 31.7239 10.5732 31.7239 10.5732C31.7099 10.5986 31.9359 10.0346 32.0704 9.68414L32.2457 10.487C32.2457 10.487 32.7441 12.7103 32.8484 13.1757H30.6877Z" fill="white"/>
</g>
</g>
</g>
<defs>
<clipPath id="clip0_278_2724">
<rect width="40" height="23" fill="white"/>
</clipPath>
</defs>
</svg>
