<svg width="16" height="16" viewBox="0 0 16 16" fill="none" xmlns="http://www.w3.org/2000/svg">
<g clip-path="url(#clip0_278_2800)">
<path d="M15.9412 8C15.9412 12.4089 12.3882 16 8.00001 16C3.61178 16 0.0588379 12.4089 0.0588379 8C0.0588379 3.57926 3.61178 0 8.00001 0C12.3882 0 15.9412 3.57926 15.9412 8Z" fill="#DA0000"/>
<path fill-rule="evenodd" clip-rule="evenodd" d="M13.2942 7.99993C13.2942 9.15351 13.2197 10.0068 13.0706 10.5599C12.953 11.0222 12.5883 11.3777 12.1412 11.5081C11.5844 11.6582 10.204 11.7333 8.00005 11.7333C5.79613 11.7333 4.41573 11.6582 3.85887 11.5081C3.41181 11.3777 3.04711 11.0222 2.92946 10.5599C2.78045 10.0068 2.70593 9.15351 2.70593 7.99993C2.70593 6.83845 2.78045 5.98117 2.92946 5.42808C3.04711 4.96586 3.41181 4.61031 3.85887 4.47993C4.41573 4.33771 5.79613 4.2666 8.00005 4.2666C10.204 4.2666 11.5844 4.33771 12.1412 4.47993C12.5883 4.61031 12.953 4.96586 13.0706 5.42808C13.2197 5.98117 13.2942 6.83845 13.2942 7.99993ZM9.69417 7.99993L6.94123 6.39993V9.59993L9.69417 7.99993Z" fill="white"/>
</g>
<defs>
<clipPath id="clip0_278_2800">
<rect width="16" height="16" fill="white"/>
</clipPath>
</defs>
</svg>
